<svg width="28" height="21" viewBox="0 0 28 21" fill="none" xmlns="http://www.w3.org/2000/svg">
<path d="M25.9674 0H2.16232C1.69485 0.000560118 1.24669 0.17067 0.916133 0.473027C0.585575 0.775384 0.399599 1.18531 0.398987 1.6129V15.3226C0.399599 15.7502 0.585575 16.1601 0.916133 16.4625C1.24669 16.7648 1.69485 16.9349 2.16232 16.9355H11.249L10.6611 18.5484H9.21567C9.09876 18.5484 8.98663 18.5909 8.90396 18.6665C8.82128 18.7421 8.77484 18.8447 8.77484 18.9516V19.7581H4.80733C4.69041 19.7581 4.57829 19.8005 4.49561 19.8762C4.41294 19.9518 4.3665 20.0543 4.3665 20.1613C4.3665 20.2682 4.41294 20.3708 4.49561 20.4464C4.57829 20.522 4.69041 20.5645 4.80733 20.5645H24.204C24.321 20.5645 24.4331 20.522 24.5158 20.4464C24.5984 20.3708 24.6449 20.2682 24.6449 20.1613C24.6449 20.0543 24.5984 19.9518 24.5158 19.8762C24.4331 19.8005 24.321 19.7581 24.204 19.7581H19.3549V18.9516C19.3549 18.8447 19.3084 18.7421 19.2257 18.6665C19.1431 18.5909 19.0309 18.5484 18.914 18.5484H17.4686L16.8807 16.9355H25.9674C26.4349 16.9349 26.883 16.7648 27.2136 16.4625C27.5441 16.1601 27.7301 15.7502 27.7307 15.3226V1.6129C27.7301 1.18531 27.5441 0.775384 27.2136 0.473027C26.883 0.17067 26.4349 0.000560118 25.9674 0ZM18.4732 19.3548V19.7581H9.65651V19.3548H18.4732ZM11.5907 18.5484L12.1786 16.9355H15.9511L16.539 18.5484H11.5907ZM26.849 15.3226C26.8487 15.5364 26.7558 15.7413 26.5905 15.8925C26.4252 16.0437 26.2011 16.1288 25.9674 16.129H2.16232C1.92859 16.1288 1.70451 16.0437 1.53923 15.8925C1.37395 15.7413 1.28096 15.5364 1.28066 15.3226V14.5161H26.849V15.3226ZM7.87444 10.0806L7.70912 13.7097H7.19555L7.03024 10.0806H7.87444ZM7.09085 9.27419L7.38511 7.66129H7.51956L7.81382 9.27419H7.09085ZM7.45234 6.85484C6.97458 6.85484 6.57067 6.30091 6.57067 5.64516C6.57067 5.23135 7.03244 4.63004 7.45123 4.20615C7.8287 4.58921 8.334 5.20161 8.334 5.64516C8.334 6.30091 7.93009 6.85484 7.45234 6.85484ZM12.2497 6.04839L12.3015 6.14365V6.45161H10.5382V6.14365L10.59 6.04839H12.2497ZM11.0308 5.24194L11.4198 4.53075L11.8089 5.24194H11.0308ZM12.3015 7.25806V13.6593C12.3017 13.6761 12.303 13.693 12.3054 13.7097H10.5343C10.5367 13.693 10.538 13.6761 10.5382 13.6593V7.25806H12.3015ZM16.269 5.64516H17.5915V6.45161H17.1507C17.0338 6.45161 16.9216 6.4941 16.839 6.56971C16.7563 6.64533 16.7099 6.7479 16.7099 6.85484C16.7099 6.96178 16.7563 7.06434 16.839 7.13996C16.9216 7.21558 17.0338 7.25806 17.1507 7.25806H17.5915V8.06452H16.269C16.1521 8.06452 16.04 8.107 15.9573 8.18262C15.8746 8.25824 15.8282 8.3608 15.8282 8.46774C15.8282 8.57468 15.8746 8.67725 15.9573 8.75287C16.04 8.82849 16.1521 8.87097 16.269 8.87097H17.5915V9.67742H17.1507C17.0338 9.67742 16.9216 9.7199 16.839 9.79552C16.7563 9.87114 16.7099 9.9737 16.7099 10.0806C16.7099 10.1876 16.7563 10.2901 16.839 10.3658C16.9216 10.4414 17.0338 10.4839 17.1507 10.4839H17.5915V11.2903H16.269C16.1521 11.2903 16.04 11.3328 15.9573 11.4084C15.8746 11.484 15.8282 11.5866 15.8282 11.6935C15.8282 11.8005 15.8746 11.9031 15.9573 11.9787C16.04 12.0543 16.1521 12.0968 16.269 12.0968H17.5915V13.7097H14.5057V4.03226H17.5915V4.83871H16.269C16.1521 4.83871 16.04 4.88119 15.9573 4.95681C15.8746 5.03243 15.8282 5.13499 15.8282 5.24194C15.8282 5.34888 15.8746 5.45144 15.9573 5.52706C16.04 5.60268 16.1521 5.64516 16.269 5.64516ZM21.559 10.4839V13.6593C21.5592 13.6761 21.5605 13.693 21.5629 13.7097H19.7918C19.7942 13.693 19.7955 13.6761 19.7957 13.6593V10.4839H21.559ZM19.7957 9.67742V9.36946L20.6774 7.75655L21.559 9.36946V9.67742H19.7957ZM26.849 13.7097H22.4368C22.4392 13.693 22.4405 13.6761 22.4407 13.6593V9.27419C22.4406 9.21159 22.4248 9.14984 22.3944 9.09375L21.0719 6.6744C21.0352 6.60743 20.9789 6.55113 20.9092 6.51178C20.8395 6.47243 20.7593 6.4516 20.6774 6.4516C20.5955 6.4516 20.5152 6.47243 20.4455 6.51178C20.3758 6.55113 20.3195 6.60743 20.2828 6.6744L18.9603 9.09375C18.9299 9.14984 18.9141 9.21159 18.914 9.27419V13.6593C18.9142 13.6761 18.9155 13.693 18.9179 13.7097H18.4732V3.62903C18.4732 3.52209 18.4268 3.41953 18.3441 3.34391C18.2614 3.26829 18.1493 3.22581 18.0324 3.22581H14.0649C13.9479 3.22581 13.8358 3.26829 13.7531 3.34391C13.6705 3.41953 13.624 3.52209 13.624 3.62903V13.7097H13.1793C13.1817 13.693 13.183 13.6761 13.1832 13.6593V6.04839C13.1831 5.98578 13.1673 5.92404 13.1369 5.86794L11.8144 3.44859C11.7777 3.38163 11.7214 3.32532 11.6517 3.28598C11.582 3.24663 11.5017 3.22579 11.4198 3.22579C11.338 3.22579 11.2577 3.24663 11.188 3.28598C11.1183 3.32532 11.062 3.38163 11.0253 3.44859L9.7028 5.86794C9.67241 5.92404 9.65657 5.98578 9.65651 6.04839V13.6593C9.65668 13.6761 9.65797 13.693 9.66037 13.7097H8.59134L8.77429 9.69405C8.77484 9.68498 8.77429 9.67591 8.77429 9.66633V9.65423C8.77327 9.64004 8.77143 9.62591 8.76878 9.6119V9.61089L8.36101 7.37248C8.87293 7.01915 9.21567 6.37702 9.21567 5.64516C9.21567 4.60887 7.90254 3.46119 7.75265 3.33367C7.67097 3.26442 7.56371 3.22594 7.45234 3.22594C7.34096 3.22594 7.2337 3.26442 7.15202 3.33367C7.00213 3.46119 5.689 4.60887 5.689 5.64516C5.689 6.37702 6.03175 7.01915 6.54367 7.37248L6.13589 9.61089V9.6119C6.13324 9.62591 6.1314 9.64004 6.13038 9.65423V9.66633C6.13038 9.67591 6.12983 9.68498 6.13038 9.69405L6.31333 13.7097H1.28066V1.6129C1.28096 1.3991 1.37395 1.19414 1.53923 1.04297C1.70451 0.891787 1.92859 0.806732 2.16232 0.806452H25.9674C26.2011 0.806732 26.4252 0.891787 26.5905 1.04297C26.7558 1.19414 26.8487 1.3991 26.849 1.6129V13.7097Z" fill="black"/>
<path d="M5.24819 14.9194H2.60319C2.48627 14.9194 2.37414 14.9619 2.29147 15.0375C2.2088 15.1132 2.16235 15.2157 2.16235 15.3227C2.16235 15.4296 2.2088 15.5322 2.29147 15.6078C2.37414 15.6834 2.48627 15.7259 2.60319 15.7259H5.24819C5.36511 15.7259 5.47724 15.6834 5.55991 15.6078C5.64258 15.5322 5.68903 15.4296 5.68903 15.3227C5.68903 15.2157 5.64258 15.1132 5.55991 15.0375C5.47724 14.9619 5.36511 14.9194 5.24819 14.9194Z" fill="black"/>
<path d="M7.01155 14.9194H6.57072C6.4538 14.9194 6.34167 14.9619 6.259 15.0375C6.17633 15.1132 6.12988 15.2157 6.12988 15.3227C6.12988 15.4296 6.17633 15.5322 6.259 15.6078C6.34167 15.6834 6.4538 15.7259 6.57072 15.7259H7.01155C7.12847 15.7259 7.2406 15.6834 7.32327 15.6078C7.40594 15.5322 7.45239 15.4296 7.45239 15.3227C7.45239 15.2157 7.40594 15.1132 7.32327 15.0375C7.2406 14.9619 7.12847 14.9194 7.01155 14.9194Z" fill="black"/>
<path d="M11.4203 7.66113C11.3033 7.66113 11.191 7.70362 11.1083 7.77923C11.0256 7.85485 10.9791 7.95742 10.9791 8.06436V12.4998C10.9791 12.6068 11.0256 12.7093 11.1083 12.785C11.191 12.8606 11.3033 12.9031 11.4203 12.9031C11.5373 12.9031 11.6495 12.8606 11.7323 12.785C11.815 12.7093 11.8615 12.6068 11.8615 12.4998V8.06436C11.8615 7.95742 11.815 7.85485 11.7323 7.77923C11.6495 7.70362 11.5373 7.66113 11.4203 7.66113Z" fill="black"/>
<path d="M20.6777 10.8872C20.5607 10.8872 20.4485 10.9297 20.3657 11.0053C20.283 11.0809 20.2365 11.1835 20.2365 11.2904V12.5001C20.2365 12.6071 20.283 12.7096 20.3657 12.7852C20.4485 12.8609 20.5607 12.9033 20.6777 12.9033C20.7948 12.9033 20.907 12.8609 20.9897 12.7852C21.0725 12.7096 21.119 12.6071 21.119 12.5001V11.2904C21.119 11.1835 21.0725 11.0809 20.9897 11.0053C20.907 10.9297 20.7948 10.8872 20.6777 10.8872Z" fill="black"/>
<path d="M2.60319 2.41924H6.12986C6.24678 2.41924 6.35891 2.37676 6.44158 2.30114C6.52425 2.22552 6.5707 2.12296 6.5707 2.01602C6.5707 1.90908 6.52425 1.80651 6.44158 1.7309C6.35891 1.65528 6.24678 1.61279 6.12986 1.61279H2.60319C2.48627 1.61279 2.37414 1.65528 2.29147 1.7309C2.2088 1.80651 2.16235 1.90908 2.16235 2.01602C2.16235 2.12296 2.2088 2.22552 2.29147 2.30114C2.37414 2.37676 2.48627 2.41924 2.60319 2.41924Z" fill="black"/>
<path d="M2.60319 3.62921H3.48486C3.60177 3.62921 3.7139 3.58672 3.79657 3.5111C3.87925 3.43548 3.92569 3.33292 3.92569 3.22598C3.92569 3.11904 3.87925 3.01648 3.79657 2.94086C3.7139 2.86524 3.60177 2.82275 3.48486 2.82275H2.60319C2.48627 2.82275 2.37414 2.86524 2.29147 2.94086C2.2088 3.01648 2.16235 3.11904 2.16235 3.22598C2.16235 3.33292 2.2088 3.43548 2.29147 3.5111C2.37414 3.58672 2.48627 3.62921 2.60319 3.62921Z" fill="black"/>
<path d="M23.7632 12.9031H25.5266C25.6435 12.9031 25.7556 12.8606 25.8383 12.785C25.9209 12.7094 25.9674 12.6068 25.9674 12.4999C25.9674 12.393 25.9209 12.2904 25.8383 12.2148C25.7556 12.1392 25.6435 12.0967 25.5266 12.0967H23.7632C23.6463 12.0967 23.5342 12.1392 23.4515 12.2148C23.3688 12.2904 23.3224 12.393 23.3224 12.4999C23.3224 12.6068 23.3688 12.7094 23.4515 12.785C23.5342 12.8606 23.6463 12.9031 23.7632 12.9031Z" fill="black"/>
<path d="M25.0857 11.6937H25.5266C25.6435 11.6937 25.7556 11.6512 25.8383 11.5756C25.921 11.4999 25.9674 11.3974 25.9674 11.2904C25.9674 11.1835 25.921 11.0809 25.8383 11.0053C25.7556 10.9297 25.6435 10.8872 25.5266 10.8872H25.0857C24.9688 10.8872 24.8567 10.9297 24.774 11.0053C24.6913 11.0809 24.6449 11.1835 24.6449 11.2904C24.6449 11.3974 24.6913 11.4999 24.774 11.5756C24.8567 11.6512 24.9688 11.6937 25.0857 11.6937Z" fill="black"/>
</svg>
