<svg width="28" height="24" viewBox="0 0 28 24" fill="none" xmlns="http://www.w3.org/2000/svg">
<path d="M0.235596 0V20.5205H9.00801V21.9877H7.40462V23.4526H20.3982V21.9877H18.7949V20.5205H27.5673V0H0.235596ZM17.1933 21.9877H10.6096V20.5205H17.1933V21.9877H17.1933ZM25.9658 19.0556H1.83712V16.1222H25.9657V19.0556H25.9658ZM25.9658 14.6573H1.83712V1.46494H25.9657V14.6573H25.9658Z" fill="black"/>
<path d="M11.1225 5.41328L9.99006 4.37744L5.96295 8.06098L9.99006 11.7445L11.1225 10.7086L8.22786 8.06098L11.1225 5.41328Z" fill="black"/>
<path d="M17.8129 4.37744L16.6804 5.41328L19.5751 8.06098L16.6804 10.7086L17.8129 11.7445L21.8399 8.06098L17.8129 4.37744Z" fill="black"/>
<path d="M14.0472 3.64421L12.1865 12.1929L13.7573 12.4784L15.6181 3.92978L14.0472 3.64421Z" fill="black"/>
</svg>
